<svg width="18" height="15" viewBox="0 0 18 15" fill="none" xmlns="http://www.w3.org/2000/svg">
<path id="Vector" d="M16.612 1.32611C16.1722 0.905694 15.65 0.572191 15.0752 0.344652C14.5005 0.117114 13.8844 0 13.2623 0C12.6401 0 12.0241 0.117114 11.4493 0.344652C10.8746 0.572191 10.3524 0.905694 9.91255 1.32611L8.99977 2.19821L8.08699 1.32611C7.19858 0.477297 5.99364 0.000439969 4.73725 0.000439978C3.48085 0.000439986 2.27591 0.477297 1.38751 1.32611C0.499101 2.17492 9.36088e-09 3.32616 0 4.52656C-9.36088e-09 5.72696 0.499101 6.87819 1.38751 7.727L2.30029 8.5991L8.99977 15L15.6992 8.5991L16.612 7.727C17.0521 7.30679 17.4011 6.80785 17.6393 6.25871C17.8774 5.70957 18 5.12097 18 4.52656C18 3.93214 17.8774 3.34355 17.6393 2.7944C17.4011 2.24526 17.0521 1.74633 16.612 1.32611Z" fill="#404BE3"/>
</svg>
