<svg width="126" height="21" viewBox="0 0 126 21" fill="none" xmlns="http://www.w3.org/2000/svg">
<g id="Group 189">
<path id="Vector" d="M10.8111 0L14.1517 6.8623L21.6222 7.96948L16.2167 13.308L17.4924 20.85L10.8111 17.2873L4.12984 20.85L5.40556 13.308L0 7.96948L7.47048 6.8623L10.8111 0Z" fill="#404BE3"/>
<path id="Vector_2" d="M36.8111 0L40.1517 6.8623L47.6222 7.96948L42.2167 13.308L43.4924 20.85L36.8111 17.2873L30.1298 20.85L31.4056 13.308L26 7.96948L33.4705 6.8623L36.8111 0Z" fill="#404BE3"/>
<path id="Vector_3" d="M62.8111 0L66.1517 6.8623L73.6222 7.96948L68.2167 13.308L69.4924 20.85L62.8111 17.2873L56.1298 20.85L57.4056 13.308L52 7.96948L59.4705 6.8623L62.8111 0Z" fill="#404BE3"/>
<path id="Vector_4" d="M88.8111 0L92.1517 6.8623L99.6222 7.96948L94.2167 13.308L95.4924 20.85L88.8111 17.2873L82.1298 20.85L83.4056 13.308L78 7.96948L85.4705 6.8623L88.8111 0Z" fill="#404BE3"/>
<path id="Vector_5" opacity="0.2" d="M114.811 0L118.152 6.8623L125.622 7.96948L120.217 13.308L121.492 20.85L114.811 17.2873L108.13 20.85L109.406 13.308L104 7.96948L111.47 6.8623L114.811 0Z" fill="white"/>
</g>
</svg>
