<svg width="41" height="41" viewBox="0 0 41 41" fill="none" xmlns="http://www.w3.org/2000/svg">
<g id="Group 191">
<g id="Group 161">
<circle id="Ellipse 13" cx="20.5" cy="20.5" r="20" fill="#0A1020" stroke="#404BE3"/>
</g>
<path id="Vector" opacity="0.5" d="M22.4062 25.4974H19.5938C19.1262 25.4974 18.75 25.1212 18.75 24.6536V18.7474H15.6668C15.041 18.7474 14.7281 17.9915 15.1711 17.5485L20.5184 12.1978C20.782 11.9341 21.2145 11.9341 21.4781 12.1978L26.8289 17.5485C27.2719 17.9915 26.959 18.7474 26.3332 18.7474H23.25V24.6536C23.25 25.1212 22.8738 25.4974 22.4062 25.4974ZM30 25.2161V29.1536C30 29.6212 29.6238 29.9974 29.1562 29.9974H12.8438C12.3762 29.9974 12 29.6212 12 29.1536V25.2161C12 24.7485 12.3762 24.3724 12.8438 24.3724H17.625V24.6536C17.625 25.7399 18.5074 26.6224 19.5938 26.6224H22.4062C23.4926 26.6224 24.375 25.7399 24.375 24.6536V24.3724H29.1562C29.6238 24.3724 30 24.7485 30 25.2161ZM25.6406 28.3099C25.6406 27.9231 25.3242 27.6067 24.9375 27.6067C24.5508 27.6067 24.2344 27.9231 24.2344 28.3099C24.2344 28.6966 24.5508 29.013 24.9375 29.013C25.3242 29.013 25.6406 28.6966 25.6406 28.3099ZM27.8906 28.3099C27.8906 27.9231 27.5742 27.6067 27.1875 27.6067C26.8008 27.6067 26.4844 27.9231 26.4844 28.3099C26.4844 28.6966 26.8008 29.013 27.1875 29.013C27.5742 29.013 27.8906 28.6966 27.8906 28.3099Z" fill="white"/>
</g>
</svg>
