<svg width="62" height="62" viewBox="0 0 62 62" fill="none" xmlns="http://www.w3.org/2000/svg">
<g id="Group 5">
<g id="Group 4" opacity="0.4">
<circle id="Ellipse 2" cx="31" cy="31" r="30" stroke="#404BE3" stroke-width="2"/>
</g>
<path id="Vector" opacity="0.4" d="M44.5273 22.5625H18.4688C17.8645 22.5625 17.375 22.073 17.375 21.4688C17.375 20.8645 17.8645 20.375 18.4688 20.375H44.7188C45.323 20.375 45.8125 19.8855 45.8125 19.2812C45.8125 17.469 44.3435 16 42.5312 16H17.375C14.9585 16 13 17.9585 13 20.375V42.25C13 44.6665 14.9585 46.625 17.375 46.625H44.5273C46.4428 46.625 48 45.1532 48 43.3438V25.8438C48 24.0343 46.4428 22.5625 44.5273 22.5625ZM41.4375 36.7812C40.2296 36.7812 39.25 35.8017 39.25 34.5938C39.25 33.3858 40.2296 32.4062 41.4375 32.4062C42.6454 32.4062 43.625 33.3858 43.625 34.5938C43.625 35.8017 42.6454 36.7812 41.4375 36.7812Z" fill="#404BE3"/>
</g>
</svg>
